<svg width="21" height="21" viewBox="0 0 21 21" fill="none" xmlns="http://www.w3.org/2000/svg">
<path d="M10.6516 11.5882L10.5776 11.595C10.236 11.6187 9.94213 11.4434 9.66621 11.2635C8.93872 10.7894 8.34118 10.1445 7.96633 9.35957L7.83429 9.06449C7.73749 8.83841 7.73254 8.88316 7.5584 8.73016C7.05292 8.28608 6.85687 7.2702 7.14605 6.64758C7.29803 6.32034 7.24501 6.51217 7.15349 6.10158C6.61206 3.67283 8.02644 2.21544 10.4052 2.08595C11.0826 2.05978 12.1923 2.18657 12.6336 2.77982C12.7806 2.9774 12.6271 2.88204 12.9107 2.93084C13.4937 3.03115 13.8538 3.71871 13.9468 4.24361C14.0396 4.7673 14.0003 5.36455 13.9227 5.88607L13.8405 6.32536C13.8221 6.41612 13.796 6.44218 13.8437 6.52139C14.1737 7.06919 14.0597 7.74841 13.7951 8.3013C13.6932 8.51435 13.5952 8.66693 13.3902 8.78955C13.2987 8.84435 13.3011 8.85593 13.2615 8.95837L13.1566 9.20893C13.0153 9.51152 12.8594 9.80549 12.663 10.0766C12.2435 10.6561 11.3931 11.4695 10.6516 11.5882Z" fill="#268DD1"/>
<path d="M16.9382 17.3412L16.7755 17.3836C16.6419 17.413 16.4978 17.4015 16.3615 17.4015L4.53943 17.3999C4.44667 17.3988 4.33537 17.4004 4.24569 17.3745C3.54442 17.1718 3.47627 16.7088 3.47607 16.1068L3.47653 14.4087C3.47745 13.4477 3.4932 13.3471 4.44969 12.873L8.31749 10.9583C8.41577 11.1075 8.49041 11.2788 8.57235 11.4376L10.5305 15.204L12.7756 10.9733C13.1774 11.1458 13.5671 11.3613 13.9573 11.5591L16.4306 12.7781C16.9146 13.0114 17.5182 13.2207 17.5856 13.8445C17.6029 14.0041 17.5939 14.1722 17.5942 14.3328L17.5951 16.06C17.5949 16.6249 17.588 17.0862 16.9382 17.3412Z" fill="#268DD1"/>
<path d="M10.6051 13.5737C10.4221 13.5793 10.2606 13.5607 10.1117 13.4452C9.61749 13.0617 9.75763 12.224 10.4969 12.1341C11.3912 12.0651 11.6003 13.4444 10.6051 13.5737Z" fill="#268DD1"/>
</svg>
