<svg xmlns="http://www.w3.org/2000/svg" width="623" height="459" viewBox="137 221 623 459" fill="none">
<g filter="url(#filter0_d_823_188)">
<path d="M151.904 656.583C151.904 656.583 117.82 592.768 174.545 553.309C231.27 513.84 127.236 473.775 164.774 424.762C202.312 375.75 329.941 415.474 326.723 324.675C323.506 233.877 430.757 209.285 466.149 236.714C501.542 264.143 506.411 397.835 608.01 383.487C709.609 369.129 805.062 558.577 723.552 656.327L151.904 656.583Z" fill="url(#paint0_linear_823_188)"/>
<path d="M741.125 658.475C741.125 665.785 735.492 671.72 728.533 671.72H156.467C149.517 671.72 143.875 665.794 143.875 658.475C143.875 651.165 149.508 645.229 156.467 645.229H728.542C735.492 645.239 741.125 651.165 741.125 658.475Z" fill="#C9C9C9"/>
<path d="M334.022 579.004L318.124 515.976H360.526V572.239H390.399V581.615H388.955L390.635 653.763H387.266V580.83H340.532L334.749 653.763H331.861L334.022 579.004Z" fill="#848484"/>
<path d="M422.301 558.36C421.059 557.405 419.913 556.298 419.388 555.976C419.169 555.844 418.478 555.673 418.285 555.607C417.708 555.418 416.789 555.229 416.386 554.737L414.68 552.712C413.866 551.719 412.808 551.388 411.889 552.267C410.891 553.214 411.189 554.566 412.178 555.522L413.35 556.96C414.138 557.726 414.531 558.805 414.969 559.855C415.861 561.984 417.865 563.583 419.589 564.709C420.674 565.409 422.31 564.917 424.454 564.122C425.504 563.734 427.035 562.788 425.723 562.258C424.62 561.813 421.304 562.778 419.834 559.477C419.764 559.316 419.606 558.881 419.755 558.729C420.201 558.275 421.181 559.297 421.838 559.619C422.756 560.073 423.491 559.921 423.728 559.552C423.964 559.174 423.185 559.041 422.301 558.36Z" fill="#FAB9AF"/>
<path d="M375.603 485.833C375.603 485.833 378.341 521.406 388.176 533.412C394.109 540.649 408.599 553.053 411.959 555.9C412.388 556.26 412.983 556.279 413.429 555.938C413.709 555.721 414.033 555.456 414.313 555.191C414.593 554.926 414.925 554.529 415.214 554.16C415.704 553.545 415.678 552.627 415.17 552.031C411.408 547.603 396.646 530.082 394.853 525.474C392.796 520.186 389.253 488.993 385.998 484.471C382.743 479.949 376.495 478.965 375.603 485.833Z" fill="#FFBE55"/>
<path d="M388.019 544.604L379.636 480.885L357.009 477.536L345.24 544.141L388.019 544.604Z" fill="#FAB9AF"/>
<path d="M388.885 542.977L379.636 480.885L357.009 477.527L344.846 543.091C344.619 544.32 345.354 545.522 346.5 545.749C350.709 546.61 360.876 548.417 372.243 548.417C380.73 548.417 385.499 546.629 387.669 545.503C388.099 545.283 388.45 544.917 388.67 544.461C388.89 544.005 388.965 543.484 388.885 542.977Z" fill="#C9C9C9"/>
<path d="M364.079 481.396C364.079 485.871 363.326 490.299 361.918 494.5C359.153 502.721 355.005 518.275 357.473 531.974C361.016 551.7 365.584 559.675 359.669 564.273C353.754 568.871 342.414 561.199 342.09 558.644C341.766 556.09 344.295 524.67 347.165 511.056C350.035 497.442 358.085 477.877 358.085 477.877L361.498 478.274C362.207 478.362 362.862 478.729 363.337 479.305C363.813 479.88 364.077 480.624 364.079 481.396ZM373.503 479.977C373.503 479.977 377.423 489.145 376.058 502.324C374.693 515.493 371.516 555.617 382.603 561.672C386.111 563.592 394.135 555.096 394.135 551.946C394.135 548.795 391.458 538.247 388.92 528.653C386.383 519.06 380.275 480.99 380.275 480.99L373.503 479.977Z" fill="#FFBE55"/>
<path d="M370.344 451.557C365.295 451.557 363.414 455.445 363.318 462.635C363.283 465.332 364.403 468 365.304 469.703C365.978 470.97 366.161 472.465 365.776 473.865L364.665 477.924C363.913 481.689 365.566 483.752 368.008 484.499C369.215 484.868 370.668 484.584 371.718 483.847C372.969 482.967 373.074 481.084 372.846 479.485L372.558 478.331C372.173 476.77 373.004 475.095 374.465 474.745C378.35 473.827 378.91 469.447 379.951 462.635C381.028 455.54 375.393 451.557 370.344 451.557Z" fill="#FAB9AF"/>
<path d="M382.095 448.406L379.199 449.362C378.136 449.713 377.001 449.72 375.935 449.381L370.151 447.564C366.651 447.564 360.867 449.703 361.594 455.171L362.241 459.031C362.495 460.573 363.694 461.727 365.137 461.86C365.269 462.39 365.724 462.768 366.231 462.768C366.861 462.768 367.369 462.219 367.369 461.548C367.369 459.807 368.497 458.321 370.072 457.934C371.997 457.47 374.062 457.356 376.215 457.981C380.231 459.145 384.466 456.458 384.869 451.973C384.895 451.689 384.904 451.406 384.904 451.112C384.912 449.305 383.53 447.981 382.095 448.406Z" fill="#0B4870"/>
<path d="M366.091 462.768C366.091 464.433 365.514 465.786 364.035 465.786C362.548 465.786 361.594 463.496 361.594 461.831C361.594 460.166 362.548 459.75 364.035 459.75C365.523 459.75 366.091 461.103 366.091 462.768Z" fill="#FAB9AF"/>
<path d="M365.479 470.09C365.479 470.09 369.25 475.701 373.94 474.934C373.94 474.934 372.969 475.436 372.732 476.259C372.732 476.259 368.279 475.899 365.479 470.09Z" fill="#E8948B"/>
<path d="M319.944 598.427L314.475 606.686C313.362 608.367 312.473 610.208 311.832 612.155L310.826 615.22C309.995 617.737 307.177 618.692 305.165 617.141C299.959 613.12 291.034 606.289 288.732 604.529C288.356 604.245 288.164 603.687 288.4 603.252C289.791 600.688 295.54 606.308 301.744 608.011C306.469 609.307 312.777 599.657 315.079 595.106C315.954 593.384 318.062 592.968 319.454 594.236C320.01 594.739 320.369 595.45 320.46 596.227C320.551 597.005 320.366 597.791 319.944 598.427Z" fill="#FAB9AF"/>
<path d="M393.041 555.209C391.965 554.623 375.812 534.244 365.575 532.503C355.346 530.753 354.27 537.745 341.346 554.046C328.422 570.347 309.032 602.958 309.032 602.958L314.956 607.613C314.956 607.613 342.422 571.511 351.032 562.778C359.651 554.046 363.151 552.002 365.837 560.158C368.532 568.313 374.99 582.286 387.913 574.131C400.846 565.985 393.041 555.209 393.041 555.209Z" fill="#0B4870"/>
<path d="M368.847 629.089L372.085 640.707C372.225 641.218 372.444 641.71 372.715 642.155L375.007 645.835C376.46 648.172 375.419 651.37 372.925 652.193C372.925 652.193 368.296 653.953 363.527 655.646C358.645 657.377 352.502 655.93 352.502 654.539C352.502 651.445 355.171 653.905 359.642 650.67C361.139 649.591 362.687 648.456 364.061 647.283C367.911 644.019 364.551 635.75 362.197 631.095C361.349 629.421 362.25 627.339 363.974 626.942L365.085 626.686C366.739 626.317 368.366 627.358 368.847 629.089Z" fill="#FAB9AF"/>
<path d="M360.194 549.969C360.194 549.969 344.041 548.805 347.812 568.02C351.584 587.235 362.889 636.138 362.889 636.138H373.117L370.422 567.433C370.422 567.443 362.346 549.969 360.194 549.969ZM372.225 641.133C372.225 641.133 368.182 643.366 365.802 643.404C365.802 643.404 366.537 647.273 360.885 649.781C355.232 652.297 352.336 650.727 352.336 654.379C352.336 658.021 359.564 659.592 364.385 658.021C369.206 656.46 375.462 651.767 376.915 650.727C378.35 649.686 372.225 641.133 372.225 641.133ZM312.419 610.083C312.419 610.083 307.974 607.718 306.399 605.485C306.399 605.485 303.747 608.702 298.034 604.993C292.32 601.284 291.699 597.528 288.75 599.903C285.801 602.278 289.249 610.13 293.65 613.669C298.051 617.207 305.926 620.074 307.711 620.764C309.496 621.455 312.419 610.083 312.419 610.083Z" fill="#0B4870"/>
<path d="M357.875 477.773C357.875 477.773 350 501.425 350.875 516.562C351.75 531.699 351.741 544.046 343.866 534.557C335.991 525.067 341.25 476.826 357.875 477.773Z" fill="#FFBE55"/>
<path d="M389.183 503.705C387.931 505.37 386.514 506.893 386.085 507.612C385.901 507.915 385.648 508.87 385.56 509.135C385.289 509.93 384.991 511.217 384.37 511.737L381.798 513.979C380.538 515.039 380.056 516.496 381.036 517.858C382.095 519.334 383.74 519.022 384.974 517.716L386.794 516.184C387.783 515.133 389.113 514.67 390.399 514.14C393.033 513.062 395.115 510.365 396.611 508.028C397.548 506.562 397.075 504.225 396.296 501.141C395.911 499.627 394.896 497.404 394.153 499.211C393.531 500.725 394.433 505.464 390.329 507.262C390.128 507.347 389.594 507.536 389.428 507.319C388.92 506.657 390.224 505.36 390.67 504.462C391.291 503.203 391.16 502.153 390.74 501.803C390.303 501.425 390.075 502.522 389.183 503.705Z" fill="#FAB9AF"/>
<path d="M341.215 528C341.215 528 343.149 545.853 352.257 539.249C361.375 532.646 378 524.131 382.375 520.347L386.75 516.562L384.046 510.384L341.215 528Z" fill="#FFBE55"/>
<path d="M610.111 578.057L626.01 515.029H583.616V571.293H553.744V580.669H555.187L553.499 652.817H556.876V579.883H603.61L609.394 652.817H612.281L610.111 578.057Z" fill="#848484"/>
<path d="M569.949 503.506C575.637 503.506 580.247 497.076 580.247 489.145C580.247 481.213 575.637 474.783 569.949 474.783C564.261 474.783 559.65 481.213 559.65 489.145C559.65 497.076 564.261 503.506 569.949 503.506Z" fill="#0B4870"/>
<path d="M572.416 490.63C572.583 482.683 578.533 475.994 585.874 475.54C592.384 475.133 598.01 479.457 600.119 485.616C600.854 487.773 602.814 489.183 604.94 489.145C605.824 489.126 606.734 489.22 607.661 489.419C613.043 490.611 617.225 495.531 617.785 501.434C618.293 506.761 615.991 511.548 612.281 514.273C610.698 515.437 609.805 517.367 609.543 519.41C608.326 528.89 600.329 535.844 591.194 534.765C583.389 533.838 577.141 526.894 576.476 518.436C576.065 513.242 577.719 508.483 580.615 504.944C575.689 502.428 572.285 496.959 572.416 490.63ZM569.949 470.072C569.949 470.072 564.156 474.017 564.856 479.324C564.856 479.324 561.759 476.959 561.059 468.795C560.578 463.137 569.949 470.072 569.949 470.072Z" fill="#0B4870"/>
<path d="M566.379 502.437C566.239 507.044 565.959 511.68 565.355 516.344C564.725 520.99 563.842 525.692 562.205 530.242C561.392 532.513 560.385 534.736 559.125 536.827C557.874 538.918 556.325 540.848 554.505 542.418C552.694 543.998 550.655 545.238 548.52 546.051C546.377 546.865 544.172 547.272 541.993 547.433C541.363 547.48 540.82 546.96 540.777 546.288C540.742 545.664 541.135 545.124 541.678 545.001H541.687C545.633 544.103 549.22 542.144 551.767 539.192C554.339 536.259 555.914 532.428 556.877 528.379C557.839 524.31 558.268 520.015 558.434 515.663C558.53 513.487 558.557 511.292 558.539 509.088C558.53 506.884 558.495 504.67 558.425 502.456C558.389 501.317 558.772 500.208 559.49 499.374C560.209 498.54 561.204 498.048 562.258 498.007C563.312 497.965 564.337 498.378 565.11 499.153C565.883 499.929 566.339 501.005 566.379 502.144V502.437Z" fill="#FAB9AF"/>
<path d="M563.465 529.959C561.146 522.409 556.482 506.411 556.885 501.179C557.008 499.565 557.689 498.061 558.791 496.965C559.894 495.869 561.337 495.263 562.835 495.266H583.004C586.346 495.266 589.085 498.132 589.181 501.746C589.347 508.066 586.661 522.437 585.147 529.959H563.465Z" fill="#2A94F4"/>
<path d="M587.449 539.533C586.408 536.366 586.092 532.974 586.53 529.647C587.545 521.917 589.33 507.357 589.164 501.179C589.121 499.592 588.508 498.085 587.454 496.979C586.4 495.873 584.989 495.255 583.52 495.256H580.527C579.39 498.114 576.975 500.318 573.221 500.318C569.476 500.318 567.061 498.114 565.924 495.256H563.115C566.169 502.324 565.066 511.643 559.816 517.083C560.796 520.81 561.61 524.566 562.222 527.603C563.054 531.718 562.686 536.014 561.19 539.912C558.609 546.6 556.57 557.329 557.174 561.577C578.392 568.077 593.057 556.572 593.057 556.572L587.449 539.533Z" fill="#2A94F4"/>
<path d="M569.949 496.77L579.101 495.729L576.205 484.906L570.29 485.692L569.949 496.77Z" fill="#FAB9AF"/>
<path d="M570.29 485.692L576.205 484.897L577.106 488.274C575.785 489.892 574.079 493.374 571.926 493.374C571.244 493.374 570.623 493.166 570.062 492.778L570.29 485.692Z" fill="#FA968C"/>
<path d="M570.08 490.933C572.093 490.933 574.263 489.845 577.255 487.016C578.97 485.389 580.248 482.56 580.248 480.649V470.072H565.189C565.189 470.072 564.06 475.692 565.154 481.264C565.976 485.436 568.505 490.933 570.08 490.933Z" fill="#FAB9AF"/>
<path d="M577.692 478.643C577.692 480.706 578.602 482.38 579.731 482.38C580.86 482.38 582.102 479.675 582.102 477.612C582.102 475.55 580.86 474.906 579.731 474.906C578.611 474.906 577.692 476.581 577.692 478.643Z" fill="#FAB9AF"/>
<path d="M582.102 471.349C582.102 469.763 581.52 468.242 580.483 467.121C579.446 465.999 578.039 465.369 576.572 465.369H571.489C570.036 465.369 568.627 464.963 567.385 464.196C565.591 463.099 563.325 463.458 562.1 465.256C560.779 467.195 560.201 469.797 563.561 472.2C565.232 473.392 567.665 472.068 569.292 472.645C569.389 472.645 569.485 472.626 569.59 472.626H574.07C575.627 472.626 576.817 473.998 576.861 475.682C576.887 476.751 577.692 477.602 578.69 477.602H578.891L579.609 475.114L582.111 478.756V471.349H582.102Z" fill="#0B4870"/>
<path d="M537.81 542.513C537.81 542.513 543.077 543.176 543.427 544.983C543.769 546.79 543.699 548.067 541.284 548.71C538.869 549.354 535.281 548.985 533.164 548.303C531.046 547.622 527.957 544.86 527.8 544.32C527.249 542.381 530.959 544.056 532.796 544.775C534.625 545.494 536.769 546.099 536.83 545.049C536.9 543.999 533.295 542.911 533.006 541.681C532.717 540.451 537.81 542.513 537.81 542.513ZM553.49 545.03C553.49 545.03 558.722 544.103 559.519 545.74C560.306 547.376 560.56 548.625 558.407 549.959C556.246 551.293 552.702 552.012 550.497 551.984C548.292 551.955 544.609 550.215 544.329 549.751C543.305 548.048 547.304 548.559 549.246 548.701C551.189 548.843 553.402 548.795 553.201 547.764C553 546.733 549.255 546.761 548.669 545.664C548.074 544.566 553.49 545.03 553.49 545.03Z" fill="#FAB9AF"/>
<path d="M566.309 469.883C566.816 472.295 566.073 473.62 573.396 477.394C580.72 481.169 583.039 479.551 585.331 483.62C585.331 483.62 584.334 476.893 580.283 474.585C576.24 472.276 569.223 470.762 566.965 465.417C566.965 465.417 565.968 468.227 566.309 469.883Z" fill="#0B4870"/>
<path d="M588.394 499.769C589.514 501.368 590.406 502.834 591.325 504.414C592.226 505.975 593.092 507.555 593.897 509.183C595.49 512.447 596.916 515.843 598.019 519.448C599.095 523.052 599.856 526.893 599.83 530.99C599.804 533.033 599.55 535.143 598.955 537.206C598.386 539.268 597.398 541.255 596.12 542.93C594.851 544.614 593.311 545.995 591.692 547.054C590.065 548.124 588.367 548.899 586.661 549.495C584.955 550.091 583.24 550.46 581.534 550.773C579.827 551.019 578.13 551.208 576.441 551.255C569.695 551.529 563.141 550.621 556.719 549.316C556.097 549.193 555.695 548.549 555.809 547.878C555.914 547.263 556.421 546.846 556.981 546.875H556.999C560.219 547.045 563.421 547.177 566.615 547.111C569.8 547.064 572.968 546.884 576.048 546.411C579.128 545.938 582.129 545.2 584.824 544.018C587.501 542.816 589.811 541.094 591.176 538.88C592.568 536.695 593.084 533.998 592.961 531.085C592.821 528.161 592.042 525.096 590.992 522.106C589.951 519.098 588.586 516.136 587.055 513.27C586.294 511.826 585.495 510.406 584.657 509.012C584.237 508.312 583.809 507.631 583.371 506.95C582.951 506.288 582.479 505.559 582.085 505.001L582.05 504.944C580.729 503.052 581.079 500.356 582.829 498.927C584.579 497.499 587.073 497.877 588.394 499.769Z" fill="#FAB9AF"/>
<path d="M567.717 470.337C567.717 470.337 567.437 478.473 560.857 482.39C560.857 482.39 563.754 476.24 563.561 472.21C563.369 468.189 568.155 467.555 567.717 470.337Z" fill="#0B4870"/>
<path d="M540.846 627.651L538.484 638.986C537.766 642.448 538.212 646.091 539.761 649.222C540.627 650.972 539.857 653.148 538.125 653.811C532.525 655.968 521.675 660.074 521.194 659.629C518.726 657.368 525.245 653.64 530.066 649.724C533.312 647.084 534.555 634.775 534.844 625.333L540.015 626.743C540.417 626.876 540.732 627.216 540.846 627.651Z" fill="#FA968C"/>
<path d="M571.882 555.531L593.434 556.563C593.434 556.563 599.182 575.721 588.647 577.272C578.112 578.824 547.461 575.2 546.499 580.375C545.545 585.551 540.75 631.123 540.75 631.123H533.566C533.566 631.123 534.047 602.126 533.566 587.102C533.085 572.078 531.169 565.872 536.917 563.28C542.666 560.716 571.882 555.531 571.882 555.531Z" fill="#0B4870"/>
<path d="M547.006 600.603C547.006 600.603 548.24 611.956 548.581 613.867C548.861 615.447 549.876 616.696 550.83 617.926C551.136 618.323 551.364 619.099 551.556 619.761C551.714 620.291 551.582 620.849 551.294 621.303C546.096 629.232 536.086 630.102 536.042 629.373C535.955 628.068 537.906 626.062 540.12 625.428C542.351 624.785 544.04 622.808 544.722 620.424C545.265 618.531 545.352 616.516 544.976 614.577L543.174 605.863L547.006 600.603Z" fill="#FA968C"/>
<path d="M552.816 624.444C553.324 624.075 553.507 623.366 553.254 622.77C553.044 622.278 552.492 620.944 552.072 619.941C552.031 619.842 551.966 619.756 551.885 619.691C551.805 619.627 551.71 619.585 551.61 619.571C551.51 619.557 551.409 619.57 551.315 619.61C551.222 619.65 551.139 619.715 551.075 619.799C547.82 623.896 543.427 626.545 538.729 625.892C536.987 626.535 535.447 628.683 535.517 629.714C535.535 629.96 537.539 630.575 539.98 629.884C550.812 626.829 552.816 624.444 552.816 624.444ZM559.405 558.37L545.037 561.993L548.389 610.158L543.121 611.19C543.121 611.19 530.189 577.528 530.67 561.993C531.151 546.459 542.64 551.123 549.351 553.185C556.054 555.267 559.405 558.37 559.405 558.37ZM531.169 652.959C528.85 653.782 526.312 654.047 523.985 654.36C523.722 654.397 523.46 654.511 523.25 654.681C521.019 656.554 519.89 658.437 521.202 659.629C521.727 660.112 534.476 655.23 539.446 653.3C540.487 652.893 540.942 651.597 540.417 650.537L539.472 648.617C536.874 650.414 534.1 651.909 531.169 652.959ZM406.962 540.233H525V544.926H406.962V540.233Z" fill="#0B4870"/>
<path d="M412.746 544.926H415.152V653.801H412.746V544.926ZM516.329 544.926H518.735V653.801H516.329V544.926Z" fill="#848484"/>
<path d="M663.749 653.886C663.749 655.75 662.349 657.254 660.634 657.254H648.602C646.879 657.254 645.487 655.741 645.487 653.886V623.545C645.487 621.682 646.887 620.177 648.602 620.177H660.634C662.357 620.177 663.749 621.691 663.749 623.545V653.886Z" fill="#FFBE55"/>
<path opacity="0.4" d="M656.058 585.248C656.058 585.248 646.214 606.885 660.721 610.575C675.229 614.265 675.649 597.935 674.161 591.209C672.674 584.482 695.695 566.393 676.708 550.394C657.72 534.396 642.924 576.989 656.058 585.248Z" fill="#2A94F4"/>
<path opacity="0.4" d="M637.726 596.989C637.726 596.989 637.262 611.227 645.907 609.42C654.552 607.613 651.122 598.701 648.812 595.466C646.502 592.23 654.867 576.459 641.051 572.797C627.244 569.145 628.801 595.986 637.726 596.989Z" fill="#2A94F4"/>
<path d="M639.196 583.574L649.889 620.178M645.435 591.019L643.169 597.169L638.015 594.094M667.651 562.864L658.481 620.178M673.033 571.53L665.438 576.714L660.564 569.6M670.959 583.545L663.355 588.739L658.481 581.625" stroke="#848484" stroke-miterlimit="10"/>
<path d="M262.999 653.886C262.999 655.75 261.599 657.254 259.884 657.254H247.852C246.129 657.254 244.737 655.741 244.737 653.886V623.545C244.737 621.682 246.137 620.177 247.852 620.177H259.884C261.607 620.177 262.999 621.691 262.999 623.545V653.886Z" fill="#FFBE55"/>
<path opacity="0.4" d="M255.308 585.248C255.308 585.248 245.464 606.885 259.971 610.575C274.479 614.265 274.899 597.935 273.411 591.209C271.924 584.482 294.945 566.393 275.958 550.394C256.97 534.396 242.174 576.989 255.308 585.248Z" fill="#2A94F4"/>
<path opacity="0.4" d="M236.976 596.989C236.976 596.989 236.513 611.227 245.158 609.42C253.803 607.613 250.373 598.701 248.063 595.466C245.753 592.23 254.118 576.459 240.301 572.797C226.485 569.136 228.051 595.986 236.976 596.989Z" fill="#2A94F4"/>
<path d="M238.446 583.574L249.139 620.178M244.685 591.019L242.419 597.169L237.265 594.094M266.901 562.864L257.731 620.178M272.283 571.53L264.688 576.714L259.814 569.6M270.209 583.545L262.605 588.739L257.731 581.625" stroke="#848484" stroke-miterlimit="10"/>
<path d="M445.384 391.859H369.346C367.342 391.859 365.715 393.619 365.715 395.785V424.65C365.715 426.817 367.342 428.576 369.346 428.576H374.579V441.396L389.104 428.576H445.384C447.387 428.576 449.015 426.817 449.015 424.65V395.785C449.014 394.744 448.631 393.746 447.951 393.01C447.27 392.274 446.346 391.86 445.384 391.859ZM371.21 409.059H416.491V410.714H371.21V409.059ZM440.116 416.627H371.21V414.972H440.116V416.627ZM440.116 405.038H371.21V403.382H440.116V405.038Z" fill="#FFBE55"/>
<path d="M493.456 407.138V436.003C493.456 438.17 495.084 439.929 497.087 439.929H553.367L567.892 452.749V439.929H573.125C575.129 439.929 576.756 438.17 576.756 436.003V407.138C576.756 404.972 575.129 403.212 573.125 403.212H497.087C495.084 403.212 493.456 404.962 493.456 407.138ZM571.261 422.067H525.98V420.412H571.261V422.067ZM502.355 426.325H571.261V427.98H502.355V426.325ZM502.355 414.735H571.261V416.391H502.355V414.735Z" fill="#2A94F4"/>
<path opacity="0.4" d="M237.873 526.482C239.057 519.811 236.938 513.765 233.142 512.978C229.345 512.19 225.307 516.96 224.124 523.631C222.94 530.302 225.059 536.348 228.856 537.135C232.652 537.923 236.69 533.153 237.873 526.482Z" fill="#FFBE55"/>
<path opacity="0.4" d="M238.714 520.558C241.447 517.602 241.104 512.439 237.946 509.025C234.789 505.611 230.013 505.24 227.28 508.195C224.546 511.151 224.89 516.315 228.047 519.729C231.205 523.142 235.98 523.514 238.714 520.558Z" fill="#FFBE55"/>
<path opacity="0.4" d="M690.233 526.474C691.417 519.803 689.298 513.756 685.501 512.969C681.705 512.181 677.667 516.951 676.484 523.622C675.3 530.293 677.419 536.339 681.215 537.127C685.012 537.914 689.05 533.145 690.233 526.474Z" fill="#FFBE55"/>
<path opacity="0.4" d="M691.085 520.561C693.819 517.606 693.475 512.442 690.318 509.028C687.161 505.614 682.385 505.243 679.651 508.199C676.918 511.155 677.261 516.318 680.419 519.732C683.576 523.146 688.352 523.517 691.085 520.561Z" fill="#FFBE55"/>
</g>
<defs>
<filter id="filter0_d_823_188" x="-4" y="0" width="953" height="1029.77" filterUnits="userSpaceOnUse" color-interpolation-filters="sRGB">
<feFlood flood-opacity="0" result="BackgroundImageFix"/>
<feColorMatrix in="SourceAlpha" type="matrix" values="0 0 0 0 0 0 0 0 0 0 0 0 0 0 0 0 0 0 127 0" result="hardAlpha"/>
<feOffset dy="4"/>
<feGaussianBlur stdDeviation="2"/>
<feComposite in2="hardAlpha" operator="out"/>
<feColorMatrix type="matrix" values="0 0 0 0 0 0 0 0 0 0 0 0 0 0 0 0 0 0 0.25 0"/>
<feBlend mode="normal" in2="BackgroundImageFix" result="effect1_dropShadow_823_188"/>
<feBlend mode="normal" in="SourceGraphic" in2="effect1_dropShadow_823_188" result="shape"/>
</filter>
<linearGradient id="paint0_linear_823_188" x1="448" y1="226.114" x2="448" y2="656.583" gradientUnits="userSpaceOnUse">
<stop stop-color="#EAEAEA"/>
<stop offset="1" stop-color="#E1E1E1"/>
</linearGradient>
</defs>
</svg>