<svg xmlns="http://www.w3.org/2000/svg" width="100" height="100" viewBox="0 0 533.5 544.3">
  <path
    fill="#4285F4"
    d="M533.5 278.4c0-17.4-1.6-34.1-4.6-50.2H272v95.1h146.9c-6.4 34.4-25.5 63.5-54.4 83v68.9h87.7c51.3-47.2 81.3-116.7 81.3-196.8z"
  />
  <path
    fill="#34A853"
    d="M272 544.3c73.7 0 135.6-24.4 180.8-66.1l-87.7-68.9c-24.4 16.3-55.6 25.9-93.1 25.9-71.5 0-132-48.3-153.6-113.2H28.9v70.8c45.1 89.5 137.6 151.5 243.1 151.5z"
  />
  <path
    fill="#FBBC05"
    d="M118.4 322c-10.1-30-10.1-62.5 0-92.5V158.7H28.9c-39.6 78.8-39.6 172.2 0 251z"
  />
  <path
    fill="#EA4335"
    d="M272 107.1c39.9-.6 78.1 14 107.5 40.7l80.2-80.2C410.4 24.6 342.6-.5 272 0 165.5 0 73.9 61.9 28.9 158.7l89.5 70.8C140 155.4 200.5 107.1 272 107.1z"
  />
</svg>
