<svg width="343" height="38" viewBox="0 0 343 38" fill="none" xmlns="http://www.w3.org/2000/svg">
<path d="M4.33641 19.68V14.08H15.3764V19.68H4.33641ZM6.05641 30H0.216406V2.76H17.3764V8.4H4.01641L6.05641 5.96V30ZM28.5867 30.48C26.5601 30.48 24.7734 30.0533 23.2267 29.2C21.6801 28.32 20.4801 27.1067 19.6267 25.56C18.7734 24.0133 18.3467 22.24 18.3467 20.24C18.3467 18.2133 18.7734 16.4267 19.6267 14.88C20.4801 13.3333 21.6801 12.1333 23.2267 11.28C24.7734 10.4 26.5601 9.96 28.5867 9.96C30.6401 9.96 32.4401 10.4 33.9867 11.28C35.5334 12.1333 36.7334 13.3333 37.5867 14.88C38.4667 16.4267 38.9067 18.2133 38.9067 20.24C38.9067 22.24 38.4667 24.0133 37.5867 25.56C36.7334 27.1067 35.5334 28.32 33.9867 29.2C32.4401 30.0533 30.6401 30.48 28.5867 30.48ZM28.5867 24.8C29.8934 24.8 30.9467 24.3867 31.7467 23.56C32.5734 22.7067 32.9867 21.6 32.9867 20.24C32.9867 18.8533 32.5734 17.7333 31.7467 16.88C30.9467 16.0267 29.8934 15.6 28.5867 15.6C27.3334 15.6 26.2934 16.0267 25.4667 16.88C24.6667 17.7067 24.2667 18.8133 24.2667 20.2C24.2667 21.5867 24.6667 22.7067 25.4667 23.56C26.2934 24.3867 27.3334 24.8 28.5867 24.8ZM48.2542 30.48C46.8142 30.48 45.6409 30.2667 44.7342 29.84C43.8542 29.4133 43.1609 28.8267 42.6542 28.08C42.1742 27.3067 41.8409 26.44 41.6542 25.48C41.4942 24.4933 41.4142 23.4533 41.4142 22.36V10.44H47.2542V22.04C47.2542 23.1333 47.4809 23.8667 47.9342 24.24C48.3876 24.5867 48.9476 24.76 49.6142 24.76C50.2009 24.76 50.7742 24.6667 51.3342 24.48C51.8942 24.2667 52.4409 23.9733 52.9742 23.6C53.5076 23.2 53.9876 22.72 54.4142 22.16L55.4142 25.12H53.7742V10.44H59.6542V30H55.2942L54.0942 26.12L56.0942 26.28C55.4542 27.0267 54.7076 27.7333 53.8542 28.4C53.0276 29.04 52.1476 29.5467 51.2142 29.92C50.2809 30.2933 49.2942 30.48 48.2542 30.48ZM69.2827 30.2C68.296 30.2 67.3893 30 66.5627 29.6C65.736 29.2 65.0693 28.5867 64.5627 27.76C64.056 26.9067 63.8027 25.7733 63.8027 24.36V2.76H69.6027V22.28C69.6027 23.2667 69.776 23.9067 70.1227 24.2C70.496 24.4667 70.9627 24.6 71.5227 24.6V30C71.256 30.0533 70.896 30.0933 70.4427 30.12C70.016 30.1733 69.6293 30.2 69.2827 30.2ZM89.8545 16.84H94.7345C96.2012 16.84 97.3345 16.48 98.1345 15.76C98.9612 15.0133 99.3745 13.9733 99.3745 12.64C99.3745 11.2267 98.9612 10.1733 98.1345 9.48C97.3345 8.76 96.2145 8.4 94.7745 8.4H89.8145L91.1345 7.08V30H85.2945V2.76H95.1745C97.2279 2.76 99.0145 3.16 100.535 3.96C102.055 4.76 103.228 5.90667 104.055 7.4C104.908 8.86667 105.335 10.6133 105.335 12.64C105.335 14.6667 104.908 16.4267 104.055 17.92C103.228 19.3867 102.041 20.52 100.495 21.32C98.9745 22.0933 97.2012 22.48 95.1745 22.48H89.8545V16.84ZM113.384 30.2C112.398 30.2 111.491 30 110.664 29.6C109.838 29.2 109.171 28.5867 108.664 27.76C108.158 26.9067 107.904 25.7733 107.904 24.36V2.76H113.704V22.28C113.704 23.2667 113.878 23.9067 114.224 24.2C114.598 24.4667 115.064 24.6 115.624 24.6V30C115.358 30.0533 114.998 30.0933 114.544 30.12C114.118 30.1733 113.731 30.2 113.384 30.2ZM124.489 30.52C123.076 30.52 121.823 30.2533 120.729 29.72C119.663 29.16 118.836 28.3867 118.249 27.4C117.663 26.4133 117.369 25.2667 117.369 23.96C117.369 22.5733 117.689 21.4 118.329 20.44C118.969 19.4533 119.823 18.6933 120.889 18.16C121.983 17.6267 123.196 17.36 124.529 17.36C126.476 17.36 128.049 17.8 129.249 18.68C130.449 19.56 131.249 20.8267 131.649 22.48L129.129 22.04V17.48C129.129 16.76 128.876 16.1333 128.369 15.6C127.863 15.0667 127.049 14.8 125.929 14.8C125.209 14.8 124.383 14.8933 123.449 15.08C122.516 15.24 121.556 15.56 120.569 16.04L118.849 11.88C120.023 11.2933 121.276 10.8267 122.609 10.48C123.969 10.1333 125.356 9.96 126.769 9.96C128.583 9.96 130.103 10.28 131.329 10.92C132.556 11.56 133.463 12.4667 134.049 13.64C134.663 14.8133 134.969 16.1733 134.969 17.72V30H130.209L129.049 26.2L131.649 25.4C131.223 27 130.409 28.2533 129.209 29.16C128.009 30.0667 126.436 30.52 124.489 30.52ZM126.289 26.36C127.169 26.36 127.863 26.1333 128.369 25.68C128.903 25.2267 129.169 24.6533 129.169 23.96C129.169 23.2133 128.903 22.6267 128.369 22.2C127.863 21.7733 127.169 21.56 126.289 21.56C125.409 21.56 124.716 21.7733 124.209 22.2C123.703 22.6267 123.449 23.2133 123.449 23.96C123.449 24.6533 123.703 25.2267 124.209 25.68C124.716 26.1333 125.409 26.36 126.289 26.36ZM144.22 28.52L136.38 10.44H142.3L149.74 27.64L144.22 28.52ZM140.02 37.6L151.82 10.44H157.74L145.98 37.6H140.02ZM170.763 30V2.76H180.283C183.11 2.76 185.537 3.30666 187.563 4.4C189.617 5.46667 191.19 7.02667 192.283 9.08C193.403 11.1067 193.963 13.5467 193.963 16.4C193.963 19.28 193.403 21.7333 192.283 23.76C191.19 25.7867 189.617 27.3333 187.563 28.4C185.51 29.4667 183.07 30 180.243 30H170.763ZM176.603 26.56L174.283 24.36H179.843C181.47 24.36 182.883 24.0933 184.083 23.56C185.31 23 186.257 22.1333 186.923 20.96C187.617 19.7867 187.963 18.2667 187.963 16.4C187.963 14.56 187.63 13.0533 186.963 11.88C186.297 10.7067 185.35 9.84 184.123 9.28C182.923 8.69333 181.51 8.4 179.883 8.4H174.003L176.603 6.68V26.56ZM205.763 30.36C203.816 30.36 202.096 29.9467 200.603 29.12C199.136 28.2933 197.99 27.12 197.163 25.6C196.363 24.08 195.963 22.2933 195.963 20.24C195.963 18.2133 196.363 16.4267 197.163 14.88C197.99 13.3333 199.136 12.1333 200.603 11.28C202.096 10.4 203.816 9.96 205.763 9.96C207.763 9.96 209.496 10.4133 210.963 11.32C212.43 12.2267 213.563 13.4533 214.363 15C215.163 16.52 215.563 18.24 215.563 20.16C215.563 20.5067 215.55 20.84 215.523 21.16C215.496 21.48 215.47 21.7333 215.443 21.92H200.523V17.76H210.963L210.283 19.48C210.283 18.0133 209.91 16.8133 209.163 15.88C208.443 14.9467 207.323 14.48 205.803 14.48C204.443 14.48 203.35 14.8933 202.523 15.72C201.723 16.5467 201.323 17.64 201.323 19V21.2C201.323 22.6667 201.736 23.8133 202.563 24.64C203.416 25.44 204.59 25.84 206.083 25.84C207.336 25.84 208.323 25.5867 209.043 25.08C209.79 24.5733 210.416 23.9467 210.923 23.2L214.883 25.4C214.03 26.9733 212.83 28.2 211.283 29.08C209.736 29.9333 207.896 30.36 205.763 30.36ZM227.172 30.32C225.012 30.32 223.305 29.7867 222.052 28.72C220.825 27.6533 220.212 25.9067 220.212 23.48V10.68L220.132 10.44L221.332 5.72H226.052V22.2C226.052 23.1067 226.265 23.76 226.692 24.16C227.119 24.5333 227.679 24.72 228.372 24.72C228.772 24.72 229.145 24.6933 229.492 24.64C229.865 24.56 230.172 24.48 230.412 24.4V29.88C229.959 30.0133 229.465 30.12 228.932 30.2C228.425 30.28 227.839 30.32 227.172 30.32ZM217.172 15.8V10.44H230.412V15.8H217.172ZM242.677 30.36C240.73 30.36 239.01 29.9467 237.517 29.12C236.05 28.2933 234.904 27.12 234.077 25.6C233.277 24.08 232.877 22.2933 232.877 20.24C232.877 18.2133 233.277 16.4267 234.077 14.88C234.904 13.3333 236.05 12.1333 237.517 11.28C239.01 10.4 240.73 9.96 242.677 9.96C244.677 9.96 246.41 10.4133 247.877 11.32C249.344 12.2267 250.477 13.4533 251.277 15C252.077 16.52 252.477 18.24 252.477 20.16C252.477 20.5067 252.464 20.84 252.437 21.16C252.41 21.48 252.384 21.7333 252.357 21.92H237.437V17.76H247.877L247.197 19.48C247.197 18.0133 246.824 16.8133 246.077 15.88C245.357 14.9467 244.237 14.48 242.717 14.48C241.357 14.48 240.264 14.8933 239.437 15.72C238.637 16.5467 238.237 17.64 238.237 19V21.2C238.237 22.6667 238.65 23.8133 239.477 24.64C240.33 25.44 241.504 25.84 242.997 25.84C244.25 25.84 245.237 25.5867 245.957 25.08C246.704 24.5733 247.33 23.9467 247.837 23.2L251.797 25.4C250.944 26.9733 249.744 28.2 248.197 29.08C246.65 29.9333 244.81 30.36 242.677 30.36ZM264.244 30.48C262.244 30.48 260.484 30.04 258.964 29.16C257.471 28.28 256.311 27.0667 255.484 25.52C254.658 23.9733 254.244 22.2 254.244 20.2C254.244 18.2 254.658 16.44 255.484 14.92C256.311 13.3733 257.471 12.16 258.964 11.28C260.484 10.4 262.244 9.96 264.244 9.96C266.431 9.96 268.324 10.4933 269.924 11.56C271.524 12.6267 272.671 14.0667 273.364 15.88L268.084 18.24C267.711 17.4133 267.218 16.7733 266.604 16.32C265.991 15.84 265.218 15.6 264.284 15.6C263.111 15.6 262.124 16.0133 261.324 16.84C260.524 17.64 260.124 18.76 260.124 20.2C260.124 21.64 260.524 22.7733 261.324 23.6C262.124 24.4 263.111 24.8 264.284 24.8C265.218 24.8 265.991 24.5733 266.604 24.12C267.218 23.6667 267.711 23.0267 268.084 22.2L273.364 24.52C272.671 26.3333 271.511 27.7867 269.884 28.88C268.258 29.9467 266.378 30.48 264.244 30.48ZM284.594 30.32C282.434 30.32 280.727 29.7867 279.474 28.72C278.247 27.6533 277.634 25.9067 277.634 23.48V10.68L277.554 10.44L278.754 5.72H283.474V22.2C283.474 23.1067 283.687 23.76 284.114 24.16C284.541 24.5333 285.101 24.72 285.794 24.72C286.194 24.72 286.567 24.6933 286.914 24.64C287.287 24.56 287.594 24.48 287.834 24.4V29.88C287.381 30.0133 286.887 30.12 286.354 30.2C285.847 30.28 285.261 30.32 284.594 30.32ZM274.594 15.8V10.44H287.834V15.8H274.594ZM297.652 30H291.812V10.44H297.652V30ZM291.292 4.28C291.292 3.24 291.599 2.4 292.212 1.76C292.852 1.12 293.692 0.799999 294.732 0.799999C295.772 0.799999 296.599 1.12 297.212 1.76C297.852 2.4 298.172 3.24 298.172 4.28C298.172 5.29333 297.852 6.12 297.212 6.76C296.599 7.37333 295.772 7.68 294.732 7.68C293.692 7.68 292.852 7.37333 292.212 6.76C291.599 6.12 291.292 5.29333 291.292 4.28ZM311.009 30.48C308.982 30.48 307.195 30.0533 305.649 29.2C304.102 28.32 302.902 27.1067 302.049 25.56C301.195 24.0133 300.769 22.24 300.769 20.24C300.769 18.2133 301.195 16.4267 302.049 14.88C302.902 13.3333 304.102 12.1333 305.649 11.28C307.195 10.4 308.982 9.96 311.009 9.96C313.062 9.96 314.862 10.4 316.409 11.28C317.955 12.1333 319.155 13.3333 320.009 14.88C320.889 16.4267 321.329 18.2133 321.329 20.24C321.329 22.24 320.889 24.0133 320.009 25.56C319.155 27.1067 317.955 28.32 316.409 29.2C314.862 30.0533 313.062 30.48 311.009 30.48ZM311.009 24.8C312.315 24.8 313.369 24.3867 314.169 23.56C314.995 22.7067 315.409 21.6 315.409 20.24C315.409 18.8533 314.995 17.7333 314.169 16.88C313.369 16.0267 312.315 15.6 311.009 15.6C309.755 15.6 308.715 16.0267 307.889 16.88C307.089 17.7067 306.689 18.8133 306.689 20.2C306.689 21.5867 307.089 22.7067 307.889 23.56C308.715 24.3867 309.755 24.8 311.009 24.8ZM336.194 9.96C337.501 9.96 338.568 10.1867 339.394 10.64C340.221 11.0667 340.848 11.6667 341.274 12.44C341.728 13.2133 342.021 14.0933 342.154 15.08C342.314 16.04 342.394 17.04 342.394 18.08V30H336.554V18.4C336.554 17.28 336.354 16.5467 335.954 16.2C335.554 15.8267 335.021 15.64 334.354 15.64C333.794 15.64 333.208 15.76 332.594 16C332.008 16.2133 331.434 16.52 330.874 16.92C330.314 17.32 329.821 17.7733 329.394 18.28L328.354 15.32H329.994V30H324.154V10.44H328.474L329.674 14.32L327.674 14.16C328.368 13.3867 329.154 12.68 330.034 12.04C330.914 11.4 331.874 10.8933 332.914 10.52C333.954 10.1467 335.048 9.96 336.194 9.96Z" fill="#462B90"/>
</svg>
