<svg width="16" height="14" viewBox="0 0 16 14" fill="none" xmlns="http://www.w3.org/2000/svg">
<g clip-path="url(#clip0_823_3288)">
<path d="M8.6546 0.00377426C8.54148 0.0122558 8.42966 0.0334829 8.3212 0.0670606C8.1912 0.0670606 8.0504 0.126101 7.9252 0.193431C7.8764 0.193431 7.8272 0.210213 7.7792 0.277745H7.7376C7.6196 0.345075 7.4952 0.399869 7.3832 0.467401H7.3206C7.288 0.534731 7.2694 0.547469 7.2372 0.615002C7.146 0.682332 7.0524 0.669594 6.9664 0.804456C6.8884 0.871988 6.8104 0.948012 6.737 1.01534C6.4896 1.28507 6.2866 1.54205 6.1118 1.87911C5.8112 2.35123 5.581 2.95801 5.4864 3.56499H5.3614C5.0554 3.69985 4.9744 4.24355 5.1738 4.85033C5.2908 5.25491 5.4964 5.53737 5.6948 5.67224C5.9614 6.75113 6.5228 7.61935 7.2582 8.1586V8.76982L6.6746 9.29654L5.5072 9.90756C4.5644 10.3797 3.6352 10.8476 2.6934 11.3195C2.1714 11.5892 1.9558 12.2762 2.0054 12.8157C2.0298 13.2201 1.8932 13.688 2.2556 13.8903C2.6002 14.0925 3.028 13.9534 3.402 13.9534H11.3434C12.7234 13.9534 14.0904 14.021 15.4704 13.9534C15.918 13.9534 16.035 13.494 15.9916 13.0895C15.9996 12.55 16.0392 11.9349 15.6164 11.5302C15.2716 11.1931 14.7866 11.0623 14.3658 10.7926C13.7474 10.5228 13.1284 10.1773 12.5108 9.90756L11.3434 9.29654L10.7598 8.76982V8.1586C11.4956 7.61915 12.057 6.75093 12.3232 5.67224C12.5218 5.53737 12.7066 5.25491 12.8232 4.85033C13.0228 4.24355 12.9628 3.69985 12.6566 3.56499H12.5316C12.4368 2.95801 12.207 2.35123 11.9062 1.87911C11.7314 1.54205 11.5082 1.28487 11.2602 1.01514C11.1868 0.94781 11.1302 0.871988 11.0516 0.804456H11.0308C10.8028 0.602264 10.5452 0.412607 10.2804 0.277745C10.2138 0.277745 10.1408 0.193431 10.072 0.193431C10.0234 0.193431 9.976 0.130145 9.926 0.130145C9.7774 0.0628146 9.644 0.0713065 9.4884 0.00377426H9.009C8.891 0.00377426 8.7704 -0.00471782 8.6546 0.00377426ZM4.1732 2.89068C4.0326 2.89068 3.8892 2.89917 3.7564 2.93293C3.6786 2.95275 3.602 2.98652 3.5272 3.01705C3.4982 3.02918 3.4722 3.04576 3.4438 3.05931C3.4318 3.06476 3.4346 3.07447 3.423 3.08033C3.3524 3.11572 3.281 3.14119 3.2144 3.18568C3.2052 3.19174 3.182 3.20044 3.1728 3.2067C3.1532 3.22025 3.1502 3.23461 3.1312 3.24876C3.0766 3.28839 3.0154 3.33045 2.9644 3.37533C2.9178 3.41779 2.883 3.47582 2.8394 3.52293C2.6918 3.67579 2.5474 3.83876 2.4434 4.02841C2.26374 4.34778 2.14362 4.69778 2.089 5.06101C2.06164 5.05397 2.03297 5.05397 2.0056 5.06101C1.8232 5.12086 1.7826 5.47186 1.9014 5.84066C1.971 6.05701 2.075 6.22887 2.1932 6.32532C2.3518 6.94908 2.6932 7.47478 3.1312 7.80031V8.1586L2.7768 8.49585L2.0888 8.85394C1.5276 9.13519 0.961202 9.41563 0.400602 9.69708C0.0898024 9.88633 -0.0249977 10.2537 0.00460234 10.6029C0.0190023 10.8221 -0.0653976 11.11 0.150602 11.2562C0.355602 11.3627 0.615602 11.3019 0.838402 11.3195H2.0472C2.1684 11.1589 2.32 11.0105 2.5058 10.8979L2.5266 10.8769H2.5474C3.4886 10.4098 4.4178 9.93304 5.3614 9.46516L6.4452 8.93825C6.3838 8.90731 6.319 8.88426 6.2576 8.85394L5.5696 8.49585L5.2154 8.1586V7.80031C5.4926 7.59468 5.7268 7.29685 5.9034 6.95757C5.6654 6.56916 5.4826 6.12252 5.3614 5.65101C5.16 5.44194 4.9712 5.21023 4.861 4.87135C4.7478 4.52277 4.7154 4.16247 4.757 3.85999C4.7936 3.59188 4.921 3.33833 5.1738 3.2067C5.0992 3.15777 5.0024 3.11976 4.9236 3.08033C4.8838 3.06052 4.8602 3.03383 4.8194 3.01705C4.7904 3.00512 4.7654 3.00633 4.736 2.99602C4.6474 2.96508 4.5572 2.92768 4.465 2.9117C4.458 2.91029 4.4514 2.91312 4.4442 2.9117C4.35458 2.89729 4.26395 2.89025 4.1732 2.89068Z" fill="#268DD1"/>
</g>
<defs>
<clipPath id="clip0_823_3288">
<rect width="16" height="14" fill="white"/>
</clipPath>
</defs>
</svg>
